<svg width="64" height="80" viewBox="0 0 64 80" fill="none" xmlns="http://www.w3.org/2000/svg">
  <path d="M56 0C58.1217 0 60.1566 0.842854 61.6569 2.34315C63.1571 3.84344 64 5.87827 64 8V72C64 74.1217 63.1571 76.1566 61.6569 77.6569C60.1566 79.1571 58.1217 80 56 80H8C5.87827 80 3.84344 79.1571 2.34315 77.6569C0.842854 76.1566 0 74.1217 0 72V8C0 5.87827 0.842854 3.84344 2.34315 2.34315C3.84344 0.842854 5.87827 0 8 0H56ZM32 44H20C18.9391 44 17.9217 44.4214 17.1716 45.1716C16.4214 45.9217 16 46.9391 16 48C16 49.0609 16.4214 50.0783 17.1716 50.8284C17.9217 51.5786 18.9391 52 20 52H32C33.0609 52 34.0783 51.5786 34.8284 50.8284C35.5786 50.0783 36 49.0609 36 48C36 46.9391 35.5786 45.9217 34.8284 45.1716C34.0783 44.4214 33.0609 44 32 44ZM44 24H20C18.9805 24.0011 17.9999 24.3915 17.2585 25.0914C16.5172 25.7913 16.0711 26.7478 16.0113 27.7656C15.9516 28.7833 16.2827 29.7855 16.9371 30.5673C17.5914 31.3491 18.5196 31.8516 19.532 31.972L20 32H44C45.0195 31.9989 46.0001 31.6085 46.7415 30.9086C47.4828 30.2087 47.9289 29.2522 47.9887 28.2344C48.0484 27.2167 47.7173 26.2145 47.0629 25.4327C46.4086 24.6509 45.4804 24.1484 44.468 24.028L44 24Z" fill="#ECE8E2" />
</svg>
