<svg xmlns="http://www.w3.org/2000/svg" width="83" height="83" viewBox="0 0 83 83" fill="none">
  <path d="M41.5 83C30.8944 83 21.6538 79.4848 13.778 72.4544C5.90222 65.424 1.38641 56.6429 0.230555 46.1111H9.68333C10.7593 54.1037 14.3144 60.7129 20.3488 65.9389C26.3832 71.1648 33.4336 73.7778 41.5 73.7778C50.4917 73.7778 58.12 70.6468 64.3849 64.3849C70.6499 58.123 73.7808 50.4947 73.7778 41.5C73.7747 32.5052 70.6438 24.8785 64.3849 18.6197C58.1261 12.3608 50.4978 9.22837 41.5 9.22222C36.1972 9.22222 31.2403 10.4518 26.6292 12.9111C22.0181 15.3704 18.137 18.7518 14.9861 23.0555H27.6667V32.2778H0V4.61111H9.22222V15.4472C13.1417 10.5287 17.9265 6.72453 23.5766 4.03472C29.2268 1.34491 35.2012 0 41.5 0C47.2639 0 52.6635 1.09591 57.6988 3.28772C62.7342 5.47954 67.1147 8.43679 70.8405 12.1595C74.5663 15.8822 77.5251 20.2628 79.7169 25.3012C81.9087 30.3396 83.0031 35.7392 83 41.5C82.9969 47.2608 81.9025 52.6604 79.7169 57.6988C77.5312 62.7372 74.5724 67.1178 70.8405 70.8405C67.1086 74.5632 62.728 77.522 57.6988 79.7169C52.6696 81.9118 47.27 83.0061 41.5 83ZM54.4111 60.8667L36.8889 43.3444V18.4444H46.1111V39.6555L60.8667 54.4111L54.4111 60.8667Z" fill="#E6E6E6"/>
</svg>
