<svg xmlns="http://www.w3.org/2000/svg" width="39" height="39" viewBox="0 0 39 39" fill="none">
  <path fill-rule="evenodd" clip-rule="evenodd" d="M33.4547 0.407798C33.1931 0.146685 32.8382 0 32.4682 0C32.0981 0 31.7432 0.146685 31.4816 0.407798L18.3642 13.5281C18.1506 13.7423 18.0124 14.0199 17.9707 14.3193L17.1334 20.2527C17.1035 20.4656 17.1234 20.6826 17.1915 20.8866C17.2596 21.0906 17.3741 21.276 17.526 21.4285C17.6779 21.5809 17.8632 21.6962 18.0672 21.7653C18.2712 21.8343 18.4885 21.8553 18.7019 21.8266L24.6466 21.0187C24.9485 20.9783 25.2288 20.8403 25.4448 20.6259L38.59 7.5056C38.72 7.37622 38.8231 7.22252 38.8934 7.05331C38.9638 6.88409 39 6.70269 39 6.51948C39 6.33628 38.9638 6.15488 38.8934 5.98566C38.8231 5.81645 38.72 5.66275 38.59 5.53337L33.4547 0.407798ZM3.48865 4.52775C3.48865 3.95113 3.95752 3.48314 4.53524 3.48314H23.7228C24.1854 3.48314 24.6291 3.29971 24.9562 2.97321C25.2834 2.6467 25.4671 2.20387 25.4671 1.74212C25.4671 1.28037 25.2834 0.837534 24.9562 0.511029C24.6291 0.184524 24.1854 0.00109539 23.7228 0.00109539H4.53524C2.03179 0.00109539 0 2.02904 0 4.52775V34.4733C0 36.9748 2.03179 39 4.53524 39H29.6535C32.1598 39 34.1888 36.9748 34.1888 34.4733V21.2416C34.1888 20.7798 34.005 20.337 33.6778 20.0105C33.3507 19.684 32.9071 19.5005 32.4444 19.5005C31.9818 19.5005 31.5381 19.684 31.211 20.0105C30.8839 20.337 30.7001 20.7798 30.7001 21.2416V29.2726H3.48865V4.52775ZM8.37276 8.358C8.37276 7.39696 9.15421 6.61698 10.1171 6.61698H15.6989C16.1615 6.61698 16.6052 6.80041 16.9323 7.12691C17.2595 7.45342 17.4432 7.89626 17.4432 8.358C17.4432 8.81975 17.2595 9.26259 16.9323 9.58909C16.6052 9.9156 16.1615 10.099 15.6989 10.099H10.1171C9.65446 10.099 9.21078 9.9156 8.88366 9.58909C8.55653 9.26259 8.37276 8.81975 8.37276 8.358ZM10.1171 13.5811C9.65446 13.5811 9.21078 13.7645 8.88366 14.091C8.55653 14.4175 8.37276 14.8603 8.37276 15.3221C8.37276 15.7838 8.55653 16.2267 8.88366 16.5532C9.21078 16.8797 9.65446 17.0631 10.1171 17.0631H12.908C13.3706 17.0631 13.8143 16.8797 14.1414 16.5532C14.4685 16.2267 14.6523 15.7838 14.6523 15.3221C14.6523 14.8603 14.4685 14.4175 14.1414 14.091C13.8143 13.7645 13.3706 13.5811 12.908 13.5811H10.1171Z" fill="#ECE8E2"/>
</svg>
