<svg width="126" height="126" viewBox="0 0 126 126" fill="none" xmlns="http://www.w3.org/2000/svg">
<path d="M78.75 73.5C64.7325 73.5 36.75 80.4825 36.75 94.5V105H120.75V94.5C120.75 80.4825 92.7675 73.5 78.75 73.5ZM31.5 52.5V36.75H21V52.5H5.25V63H21V78.75H31.5V63H47.25V52.5M78.75 63C84.3195 63 89.661 60.7875 93.5992 56.8492C97.5375 52.911 99.75 47.5695 99.75 42C99.75 36.4305 97.5375 31.089 93.5992 27.1508C89.661 23.2125 84.3195 21 78.75 21C73.1805 21 67.839 23.2125 63.9008 27.1508C59.9625 31.089 57.75 36.4305 57.75 42C57.75 47.5695 59.9625 52.911 63.9008 56.8492C67.839 60.7875 73.1805 63 78.75 63Z" fill="white"/>
</svg>
