<svg width="172" height="172" viewBox="0 0 172 172" fill="none" xmlns="http://www.w3.org/2000/svg">
<path d="M20.0996 78.3333H77.4011V21H20.0996V78.3333ZM34.425 35.3333H63.0757V64H34.425V35.3333ZM20.0996 150H77.4011V92.6667H20.0996V150ZM34.425 107H63.0757V135.667H34.425V107ZM91.7265 21V78.3333H149.028V21H91.7265ZM134.703 64H106.052V35.3333H134.703V64ZM91.7981 92.6667H106.123V107H91.7981V92.6667ZM106.123 107H120.449V121.333H106.123V107ZM91.7981 121.333H106.123V135.667H91.7981V121.333ZM120.449 121.333H134.774V135.667H120.449V121.333ZM134.774 135.667H149.1V150H134.774V135.667ZM106.123 135.667H120.449V150H106.123V135.667ZM120.449 92.6667H134.774V107H120.449V92.6667ZM134.774 107H149.1V121.333H134.774V107Z" fill="white"/>
</svg>
