<svg xmlns="http://www.w3.org/2000/svg" width="51" height="46" viewBox="0 0 51 46" fill="none">
  <path d="M25.5 7.84609L24.2001 9.05373C24.3665 9.23085 24.5678 9.37206 24.7914 9.46861C25.015 9.56516 25.2562 9.61498 25.5 9.61498C25.7438 9.61498 25.985 9.56516 26.2086 9.46861C26.4322 9.37206 26.6335 9.23085 26.7999 9.05373L25.5 7.84609ZM3.32567 26.9702C3.44304 27.1759 3.60067 27.356 3.78926 27.5C3.97784 27.6441 4.19355 27.749 4.42363 27.8087C4.65371 27.8685 4.89349 27.8817 5.12881 27.8477C5.36413 27.8137 5.5902 27.7331 5.79367 27.6108C5.99713 27.4884 6.17387 27.3267 6.31342 27.1353C6.45297 26.9438 6.55251 26.7265 6.60615 26.4962C6.65979 26.2658 6.66645 26.0271 6.62573 25.7941C6.58501 25.5612 6.49774 25.3387 6.36907 25.1399L3.32567 26.9702ZM12.5413 32.841C12.3805 32.6657 12.186 32.5244 11.9692 32.4254C11.7524 32.3265 11.5179 32.2719 11.2794 32.2649C11.041 32.2578 10.8036 32.2986 10.5813 32.3846C10.359 32.4707 10.1564 32.6003 9.98557 32.7658C9.81469 32.9313 9.67902 33.1292 9.58663 33.3479C9.49424 33.5666 9.44702 33.8015 9.44777 34.0387C9.44853 34.2758 9.49724 34.5105 9.59101 34.7285C9.68478 34.9466 9.8217 35.1437 9.99363 35.3081L12.5413 32.841ZM3.55814 16.677C3.55814 9.82502 6.56595 5.5912 10.2854 4.14061C13.9977 2.69475 19.1902 3.72785 24.2001 9.05373L26.7999 6.63845C21.1353 0.614396 14.4674 -1.2867 8.98786 0.845546C3.51544 2.97779 0 8.83202 0 16.677H3.55814ZM33.826 41.778C37.3676 38.9216 41.6089 35.0935 44.982 30.8172C48.3195 26.5858 51 21.6679 51 16.6722H47.4419C47.4419 20.4744 45.3544 24.6068 42.1806 28.6331C39.0399 32.6169 35.0263 36.2563 31.5868 39.0301L33.826 41.778ZM51 16.6722C51 8.82966 47.4846 2.97543 42.0098 0.845546C36.5302 -1.28905 29.8646 0.609679 24.2001 6.63609L26.7999 9.05373C31.8098 3.72785 37.0023 2.69239 40.7146 4.13826C44.434 5.58648 47.4419 9.82266 47.4419 16.6722H51ZM17.174 41.7803C20.1865 44.2145 22.2787 46 25.5 46V42.462C23.785 42.462 22.7175 41.6978 19.4132 39.0325L17.174 41.7803ZM31.5868 39.0301C28.2825 41.6954 27.215 42.462 25.5 42.462V46C28.7213 46 30.8159 44.2145 33.8284 41.7803L31.5868 39.0301ZM6.37144 25.1399C4.59474 22.2246 3.55814 19.3588 3.55814 16.677H0C0 20.2433 1.36633 23.753 3.32567 26.9702L6.37144 25.1399ZM19.4132 39.0325C17.005 37.1014 14.7106 35.0341 12.5413 32.841L9.99363 35.3081C12.2575 37.6026 14.6566 39.7637 17.174 41.7803L19.4132 39.0325Z" fill="#ECE8E2"/>
</svg>
